<?xml version="1.0" encoding="UTF-8"?>
<svg id="Layer_1" xmlns="http://www.w3.org/2000/svg" version="1.1" xmlns:xlink="http://www.w3.org/1999/xlink" viewBox="0 0 328.58 152.03">
  <defs>
    <style>
      .st0 {
        fill: none;
      }

      .st1 {
        clip-path: url(#clippath-1);
      }

      .st2 {
        fill: #414042;
      }

      .st3 {
        clip-path: url(#clippath-2);
      }

      .st4 {
        clip-path: url(#clippath);
      }
    </style>
    <clipPath id="clippath">
      <rect class="st0" x="0" width="328.58" height="152.03"/>
    </clipPath>
    <clipPath id="clippath-1">
      <rect class="st0" x="0" width="328.58" height="152.03"/>
    </clipPath>
    <clipPath id="clippath-2">
      <rect class="st0" x="0" width="328.58" height="152.03"/>
    </clipPath>
  </defs>
  <polygon class="st2" points="129.05 138.33 129.05 125.59 132 125.59 132 135.94 141.56 135.94 141.56 138.33 129.05 138.33"/>
  <polygon class="st2" points="145.92 138.33 145.92 125.59 158.95 125.59 158.95 127.76 148.88 127.76 148.88 130.6 154.75 130.6 154.75 132.77 148.88 132.77 148.88 135.94 159.06 135.94 159.06 138.33 145.92 138.33"/>
  <g class="st4">
    <path class="st2" d="M164.53,138.33v-12.74h8.2c2.35,0,4.13.54,5.4,1.63,1.27,1.11,1.88,2.64,1.88,4.65,0,1.2-.23,2.26-.72,3.21-.5.98-1.18,1.72-2.08,2.26-.54.34-1.25.58-2.06.74-.84.16-1.9.25-3.16.25h-7.46ZM167.51,135.93h3.82c2.06,0,3.5-.32,4.33-.97.86-.63,1.29-1.67,1.29-3.14,0-1.29-.36-2.28-1.06-2.96-.7-.66-1.74-1-3.14-1h-5.24v8.06Z"/>
  </g>
  <polygon class="st2" points="195 138.33 195 125.59 197.96 125.59 197.96 135.94 207.52 135.94 207.52 138.33 195 138.33"/>
  <rect class="st2" x="211.88" y="125.59" width="2.96" height="12.74"/>
  <g class="st1">
    <path class="st2" d="M233.29,127.87h-9.26v8.06h9.26v-2.85h-4.84v-2.17h7.73v4.38c0,1.18-.23,1.97-.65,2.39-.43.41-1.27.63-2.5.63h-8.79c-1.24,0-2.08-.23-2.5-.63-.43-.43-.65-1.22-.65-2.39v-6.71c0-1.15.22-1.94.65-2.37.43-.43,1.27-.63,2.5-.63h8.79c1.22,0,2.05.21,2.48.63.45.41.67,1.16.67,2.26v.29l-2.89.52v-1.42Z"/>
  </g>
  <polygon class="st2" points="242.44 138.33 242.44 125.59 245.4 125.59 245.4 130.54 254.65 130.54 254.65 125.59 257.64 125.59 257.64 138.33 254.65 138.33 254.65 132.84 245.4 132.84 245.4 138.33 242.44 138.33"/>
  <polygon class="st2" points="270.08 127.87 270.08 138.33 267.13 138.33 267.13 127.87 261.27 127.87 261.27 125.59 275.96 125.59 275.96 127.87 270.08 127.87"/>
  <rect class="st2" x="279.57" y="125.59" width="2.99" height="12.74"/>
  <g class="st3">
    <path class="st2" d="M289.04,138.33v-12.74h2.01l8.97,7.5c.32.25.58.5.81.7.23.23.45.45.63.7-.05-.72-.07-1.25-.09-1.53-.02-.3-.02-.52-.02-.68v-6.69h2.66v12.74h-2.04l-9.35-7.88c-.23-.2-.41-.39-.58-.54-.16-.16-.32-.32-.47-.5.04.41.07.77.09,1.13.02.34.04.65.04.91v6.89h-2.66Z"/>
    <path class="st2" d="M322.47,127.87h-9.26v8.06h9.26v-2.85h-4.86v-2.17h7.73v4.38c0,1.18-.21,1.97-.65,2.39-.43.41-1.27.63-2.51.63h-8.78c-1.22,0-2.06-.23-2.5-.63-.43-.43-.63-1.22-.63-2.39v-6.71c0-1.15.2-1.94.63-2.37.45-.43,1.29-.63,2.5-.63h8.78c1.25,0,2.06.21,2.51.63.43.41.65,1.16.65,2.26v.29l-2.87.52v-1.42Z"/>
    <path class="st2" d="M129.26,47.17v62.7c0,2.04,1.66,3.69,3.67,3.69h8.85c2.03,0,3.69-1.66,3.69-3.69v-62.7c0-2.04-1.66-3.69-3.69-3.69h-8.85c-2.01,0-3.67,1.66-3.67,3.69"/>
    <path class="st2" d="M228.19,63.37v46.5c0,2.04,1.64,3.69,3.67,3.69h8.85c2.03,0,3.67-1.66,3.67-3.69v-46.5c0-2.04-1.64-3.69-3.67-3.69h-8.85c-2.03,0-3.67,1.66-3.67,3.69"/>
    <path class="st2" d="M158.99,20.82v88.32c0,2.12,1.73,3.82,3.85,3.82h8.69c2.01,0,3.67-1.64,3.67-3.67v-21.99c0-1.75,2.21-2.55,3.34-1.18l20.86,25.49c.71.86,1.77,1.35,2.88,1.35h14.01c1.84,0,2.85-2.13,1.7-3.54l-27.96-34.04c-1.06-1.31-.93-3.19.29-4.33l23.54-23.8c1.43-1.35.48-3.78-1.51-3.78h-13.13c-1.62,0-3.19.67-4.33,1.8l-16.54,16.55c-1.17,1.17-3.16.35-3.16-1.31V20.95c0-2.19-1.77-3.96-3.98-3.96h-8.38c-2.12,0-3.85,1.71-3.85,3.82"/>
    <path class="st2" d="M291.62,41.71c-20.4,0-36.93,16.55-36.93,36.96s16.54,36.96,36.93,36.96,36.96-16.53,36.96-36.96-16.53-36.96-36.96-36.96M291.62,99.73c-11.63,0-21.04-9.44-21.04-21.06s9.42-21.04,21.04-21.04,21.06,9.42,21.06,21.04-9.42,21.06-21.06,21.06"/>
    <path class="st2" d="M79.2,96.57l-28.76,17.69-20.07-12.09c.94-11.62,9.4-20.71,19.69-20.71s18.87,9.18,19.72,20.89l6.41-3.94c-.95-15.45-12.27-27.63-26.13-27.63s-25.1,12.13-26.1,27.53l-3.03-1.82c-.28-1.58-.44-3.21-.44-4.86,0-13.79,10.29-25.29,23.93-27.82l-16.48-15.6c-1-.95-1.04-2.52-.09-3.51.95-1.02,2.52-1.07,3.54-.11l17.26,16.35V23.71c0-1.37,1.13-2.47,2.5-2.47s2.5,1.1,2.5,2.47v36.51l15.22-15.57c.98-.97,2.55-.99,3.54-.04.98.97,1,2.54.05,3.54l-15.55,15.9c13.04,2.95,22.75,14.18,22.75,27.58,0,1.68-.17,3.34-.46,4.95M100.81,86.16l-4.05-44.12c-.22-2.61-1.46-5.01-3.45-6.74L55.02,1.73c-2.61-2.3-6.54-2.3-9.18,0L7.49,35.32c-1.95,1.71-3.16,4.09-3.41,6.65L.04,86.23c-.35,3.87,1.48,7.6,4.73,9.68l42.46,27.26v28.87h6.41v-28.87l42.39-27.21c3.3-2.12,5.13-5.87,4.77-9.79"/>
  </g>
</svg>
