<?xml version="1.0" encoding="UTF-8"?>
<svg id="Layer_1" xmlns="http://www.w3.org/2000/svg" version="1.1" viewBox="0 0 308.96 142.95">
  <defs>
    <style>
      .st0 {
        fill: #38393a;
      }

      .st1 {
        fill: #599761;
      }

      .st2 {
        fill: #ecd57b;
      }

      .st3 {
        fill: #eac13b;
      }

      .st4 {
        fill: #fff;
      }

      .st5 {
        fill: #367847;
      }
    </style>
  </defs>
  <g>
    <polygon class="st5" points="121.61 130.05 121.61 118.08 124.39 118.08 124.39 127.79 133.36 127.79 133.36 130.05 121.61 130.05"/>
    <polygon class="st5" points="137.45 130.05 137.45 118.08 149.67 118.08 149.67 120.13 140.23 120.13 140.23 122.79 145.74 122.79 145.74 124.83 140.23 124.83 140.23 127.79 149.79 127.79 149.79 130.05 137.45 130.05"/>
    <path class="st5" d="M157.71,127.79h3.58c1.93,0,3.29-.27,4.08-.89.8-.6,1.2-1.59,1.2-2.96,0-1.2-.33-2.13-.99-2.77-.65-.62-1.64-.93-2.95-.93h-4.92v7.55ZM154.91,130.05v-11.97h7.7c2.2,0,3.88.52,5.07,1.52,1.18,1.05,1.76,2.49,1.76,4.37,0,1.12-.21,2.12-.68,3.01-.47.91-1.11,1.62-1.95,2.12-.51.32-1.17.55-1.93.71-.79.14-1.78.23-2.97.23h-7Z"/>
    <polygon class="st5" points="183.51 130.05 183.51 118.08 186.29 118.08 186.29 127.79 195.25 127.79 195.25 130.05 183.51 130.05"/>
    <rect class="st5" x="199.35" y="118.08" width="2.77" height="11.97"/>
    <path class="st5" d="M219.44,120.23h-8.69v7.56h8.69v-2.65h-4.54v-2.05h7.25v4.12c0,1.09-.22,1.85-.61,2.25-.41.39-1.19.6-2.36.6h-8.24c-1.17,0-1.95-.21-2.35-.6-.41-.4-.62-1.16-.62-2.25v-6.3c0-1.08.21-1.82.62-2.23.4-.4,1.18-.6,2.35-.6h8.24c1.15,0,1.93.2,2.34.6.42.39.64,1.09.64,2.12v.27l-2.72.49v-1.33Z"/>
    <polygon class="st5" points="228.03 130.05 228.03 118.08 230.8 118.08 230.8 122.74 239.49 122.74 239.49 118.08 242.29 118.08 242.29 130.05 239.49 130.05 239.49 124.9 230.8 124.9 230.8 130.05 228.03 130.05"/>
    <polygon class="st5" points="253.98 120.23 253.98 130.05 251.19 130.05 251.19 120.23 245.71 120.23 245.71 118.08 259.48 118.08 259.48 120.23 253.98 120.23"/>
    <rect class="st5" x="262.88" y="118.08" width="2.8" height="11.97"/>
    <path class="st5" d="M271.76,130.05v-11.97h1.88l8.42,7.06c.29.22.55.45.75.66.22.21.43.4.6.65-.04-.68-.06-1.17-.09-1.45-.02-.27-.02-.49-.02-.63v-6.28h2.5v11.97h-1.91l-8.78-7.41c-.22-.19-.39-.36-.56-.51-.15-.15-.3-.29-.45-.48.05.38.08.73.1,1.08.02.31.03.61.03.84v6.48h-2.49Z"/>
    <path class="st5" d="M303.13,120.23h-8.69v7.56h8.69v-2.65h-4.56v-2.05h7.25v4.12c0,1.09-.19,1.85-.61,2.25-.41.39-1.19.6-2.35.6h-8.24c-1.14,0-1.93-.21-2.36-.6-.4-.4-.59-1.16-.59-2.25v-6.3c0-1.08.19-1.82.59-2.23.43-.4,1.21-.6,2.36-.6h8.24c1.17,0,1.93.2,2.35.6.41.39.61,1.09.61,2.12v.27l-2.69.49v-1.33Z"/>
  </g>
  <path class="st0" d="M121.54,44.35v58.97c0,1.9,1.56,3.46,3.45,3.46h8.31c1.92,0,3.47-1.56,3.47-3.46v-58.97c0-1.91-1.55-3.47-3.47-3.47h-8.31c-1.89,0-3.45,1.56-3.45,3.47"/>
  <path class="st0" d="M214.57,59.59v43.73c0,1.9,1.53,3.46,3.44,3.46h8.32c1.91,0,3.45-1.56,3.45-3.46v-43.73c0-1.92-1.54-3.47-3.45-3.47h-8.32c-1.91,0-3.44,1.55-3.44,3.47"/>
  <path class="st0" d="M149.49,19.58v83.04c0,2,1.62,3.6,3.62,3.6h8.17c1.89,0,3.45-1.54,3.45-3.45v-20.68c0-1.64,2.07-2.38,3.14-1.1l19.62,23.96c.67.81,1.67,1.27,2.7,1.27h13.18c1.73,0,2.68-1.99,1.6-3.32l-26.29-32.01c-1-1.23-.88-2.99.26-4.07l22.14-22.39c1.36-1.27.46-3.55-1.41-3.55h-12.34c-1.52,0-3,.62-4.08,1.69l-15.55,15.56c-1.1,1.1-2.97.33-2.97-1.22V19.7c0-2.06-1.66-3.71-3.74-3.71h-7.88c-1.99,0-3.62,1.6-3.62,3.59"/>
  <path class="st0" d="M274.21,93.76c-10.93,0-19.79-8.87-19.79-19.8s8.86-19.78,19.79-19.78,19.81,8.85,19.81,19.78-8.86,19.8-19.81,19.8M274.21,39.22c-19.19,0-34.73,15.56-34.73,34.74s15.54,34.75,34.73,34.75,34.75-15.54,34.75-34.75-15.54-34.74-34.75-34.74"/>
  <path class="st5" d="M87.74,33.19L51.73,1.62c-2.46-2.16-6.15-2.16-8.63,0L7.04,33.2c-1.83,1.61-2.97,3.85-3.2,6.27L.04,81.07c-.33,3.64,1.39,7.15,4.46,9.1l39.91,25.63v27.15h6.03v-27.15l39.86-25.58c3.1-2,4.83-5.54,4.49-9.21l-3.8-41.48c-.21-2.45-1.37-4.72-3.24-6.34"/>
  <path class="st1" d="M48.09,22.3v44.25V22.3Z"/>
  <path class="st1" d="M48.09,68.87c-1.29,0-2.35-1.04-2.35-2.33V22.3c0-1.29,1.06-2.32,2.35-2.32s2.35,1.04,2.35,2.32v44.25c0,1.29-1.06,2.33-2.35,2.33"/>
  <path class="st1" d="M27.9,43.62l32.1,30.41-32.1-30.41Z"/>
  <path class="st1" d="M60,76.38c-.56,0-1.14-.22-1.6-.64l-32.13-30.41c-.94-.89-.98-2.37-.09-3.31.9-.95,2.38-.99,3.33-.09l32.11,30.4c.94.89.98,2.38.09,3.32-.47.5-1.08.73-1.71.73"/>
  <path class="st1" d="M66.44,43.62l-30.92,31.63,30.92-31.63Z"/>
  <path class="st1" d="M35.51,77.6c-.58,0-1.18-.23-1.64-.67-.94-.91-.94-2.39-.04-3.32l30.93-31.63c.92-.91,2.39-.94,3.33-.04.9.92.93,2.39.04,3.33l-30.93,31.63c-.46.46-1.08.71-1.69.71"/>
  <path class="st3" d="M74.47,90.8c.26-1.52.43-3.08.43-4.65,0-14.71-12.44-26.64-27.81-26.64s-27.83,11.93-27.83,26.64c0,1.56.14,3.1.42,4.57l27.74,16.7,27.05-16.62Z"/>
  <path class="st2" d="M71.64,92.52c-.9-14.52-11.54-25.97-24.57-25.97s-23.61,11.41-24.54,25.9l24.89,14.98,24.23-14.9Z"/>
  <path class="st4" d="M65.61,96.25c-.8-11.02-8.79-19.66-18.54-19.66s-17.64,8.57-18.51,19.5l18.86,11.34,18.2-11.18Z"/>
</svg>
